<mxfile host="app.diagrams.net" modified="2024-03-21T09:53:12.860Z" agent="Mozilla/5.0 (Windows NT 10.0; Win64; x64) AppleWebKit/537.36 (KHTML, like Gecko) Chrome/122.0.0.0 Safari/537.36" etag="vYBZIP4Z0rsRtn6ubxHH" version="24.0.7" type="google">
  <diagram id="C5RBs43oDa-KdzZeNtuy" name="Page-1">
    <mxGraphModel grid="1" page="1" gridSize="10" guides="1" tooltips="1" connect="1" arrows="1" fold="1" pageScale="1" pageWidth="827" pageHeight="1169" math="0" shadow="0">
      <root>
        <mxCell id="WIyWlLk6GJQsqaUBKTNV-0" />
        <mxCell id="WIyWlLk6GJQsqaUBKTNV-1" parent="WIyWlLk6GJQsqaUBKTNV-0" />
        <mxCell id="CYJbOS5tGdlDDgBb6uvB-16" style="edgeStyle=orthogonalEdgeStyle;rounded=0;orthogonalLoop=1;jettySize=auto;html=1;exitX=0.5;exitY=1;exitDx=0;exitDy=0;entryX=0.5;entryY=0;entryDx=0;entryDy=0;" edge="1" parent="WIyWlLk6GJQsqaUBKTNV-1" source="CYJbOS5tGdlDDgBb6uvB-0" target="CYJbOS5tGdlDDgBb6uvB-1">
          <mxGeometry relative="1" as="geometry" />
        </mxCell>
        <mxCell id="CYJbOS5tGdlDDgBb6uvB-0" value="START" style="ellipse;whiteSpace=wrap;html=1;" vertex="1" parent="WIyWlLk6GJQsqaUBKTNV-1">
          <mxGeometry x="160" y="80" width="50" height="50" as="geometry" />
        </mxCell>
        <mxCell id="dZS05zoEMpCcjYwUeMb2-0" style="edgeStyle=orthogonalEdgeStyle;rounded=0;orthogonalLoop=1;jettySize=auto;html=1;exitX=0.5;exitY=1;exitDx=0;exitDy=0;entryX=0.5;entryY=0;entryDx=0;entryDy=0;" edge="1" parent="WIyWlLk6GJQsqaUBKTNV-1" source="CYJbOS5tGdlDDgBb6uvB-1" target="CYJbOS5tGdlDDgBb6uvB-2">
          <mxGeometry relative="1" as="geometry" />
        </mxCell>
        <mxCell id="CYJbOS5tGdlDDgBb6uvB-1" value="Bob (Office Manager) wants a new menu" style="rounded=1;whiteSpace=wrap;html=1;" vertex="1" parent="WIyWlLk6GJQsqaUBKTNV-1">
          <mxGeometry x="125" y="170" width="120" height="60" as="geometry" />
        </mxCell>
        <mxCell id="CYJbOS5tGdlDDgBb6uvB-4" value="" style="edgeStyle=orthogonalEdgeStyle;rounded=0;orthogonalLoop=1;jettySize=auto;html=1;" edge="1" parent="WIyWlLk6GJQsqaUBKTNV-1" source="CYJbOS5tGdlDDgBb6uvB-2" target="CYJbOS5tGdlDDgBb6uvB-3">
          <mxGeometry relative="1" as="geometry" />
        </mxCell>
        <mxCell id="CYJbOS5tGdlDDgBb6uvB-2" value="gives Charles the task to create a new menu" style="rounded=1;whiteSpace=wrap;html=1;" vertex="1" parent="WIyWlLk6GJQsqaUBKTNV-1">
          <mxGeometry x="125" y="260" width="120" height="60" as="geometry" />
        </mxCell>
        <mxCell id="CYJbOS5tGdlDDgBb6uvB-6" value="" style="edgeStyle=orthogonalEdgeStyle;rounded=0;orthogonalLoop=1;jettySize=auto;html=1;" edge="1" parent="WIyWlLk6GJQsqaUBKTNV-1" source="CYJbOS5tGdlDDgBb6uvB-3" target="CYJbOS5tGdlDDgBb6uvB-5">
          <mxGeometry relative="1" as="geometry" />
        </mxCell>
        <mxCell id="CYJbOS5tGdlDDgBb6uvB-3" value="Charles asks Susan, Larry and Laura for feedback" style="rounded=1;whiteSpace=wrap;html=1;" vertex="1" parent="WIyWlLk6GJQsqaUBKTNV-1">
          <mxGeometry x="125" y="350" width="120" height="60" as="geometry" />
        </mxCell>
        <mxCell id="CYJbOS5tGdlDDgBb6uvB-8" value="" style="edgeStyle=orthogonalEdgeStyle;rounded=0;orthogonalLoop=1;jettySize=auto;html=1;" edge="1" parent="WIyWlLk6GJQsqaUBKTNV-1" source="CYJbOS5tGdlDDgBb6uvB-5" target="CYJbOS5tGdlDDgBb6uvB-7">
          <mxGeometry relative="1" as="geometry" />
        </mxCell>
        <mxCell id="CYJbOS5tGdlDDgBb6uvB-5" value="asks the Servers what is ordered the most" style="rounded=1;whiteSpace=wrap;html=1;" vertex="1" parent="WIyWlLk6GJQsqaUBKTNV-1">
          <mxGeometry x="294" y="350" width="120" height="60" as="geometry" />
        </mxCell>
        <mxCell id="CYJbOS5tGdlDDgBb6uvB-10" value="" style="edgeStyle=orthogonalEdgeStyle;rounded=0;orthogonalLoop=1;jettySize=auto;html=1;" edge="1" parent="WIyWlLk6GJQsqaUBKTNV-1" source="CYJbOS5tGdlDDgBb6uvB-7" target="CYJbOS5tGdlDDgBb6uvB-9">
          <mxGeometry relative="1" as="geometry" />
        </mxCell>
        <mxCell id="CYJbOS5tGdlDDgBb6uvB-7" value="adjusts menu and recipes" style="whiteSpace=wrap;html=1;rounded=1;" vertex="1" parent="WIyWlLk6GJQsqaUBKTNV-1">
          <mxGeometry x="294" y="260" width="120" height="60" as="geometry" />
        </mxCell>
        <mxCell id="CYJbOS5tGdlDDgBb6uvB-12" value="" style="edgeStyle=orthogonalEdgeStyle;rounded=0;orthogonalLoop=1;jettySize=auto;html=1;" edge="1" parent="WIyWlLk6GJQsqaUBKTNV-1" source="CYJbOS5tGdlDDgBb6uvB-9" target="CYJbOS5tGdlDDgBb6uvB-11">
          <mxGeometry relative="1" as="geometry" />
        </mxCell>
        <mxCell id="CYJbOS5tGdlDDgBb6uvB-9" value="asks Bev &amp;amp; Bob for feedback" style="whiteSpace=wrap;html=1;rounded=1;" vertex="1" parent="WIyWlLk6GJQsqaUBKTNV-1">
          <mxGeometry x="294" y="170" width="120" height="60" as="geometry" />
        </mxCell>
        <mxCell id="CYJbOS5tGdlDDgBb6uvB-14" value="" style="edgeStyle=orthogonalEdgeStyle;rounded=0;orthogonalLoop=1;jettySize=auto;html=1;" edge="1" parent="WIyWlLk6GJQsqaUBKTNV-1" source="CYJbOS5tGdlDDgBb6uvB-11" target="CYJbOS5tGdlDDgBb6uvB-13">
          <mxGeometry relative="1" as="geometry">
            <Array as="points">
              <mxPoint x="574" y="250" />
              <mxPoint x="520" y="250" />
            </Array>
          </mxGeometry>
        </mxCell>
        <mxCell id="CYJbOS5tGdlDDgBb6uvB-27" value="Yes" style="edgeLabel;html=1;align=center;verticalAlign=middle;resizable=0;points=[];" connectable="0" vertex="1" parent="CYJbOS5tGdlDDgBb6uvB-14">
          <mxGeometry x="-0.3333" y="2" relative="1" as="geometry">
            <mxPoint as="offset" />
          </mxGeometry>
        </mxCell>
        <mxCell id="CYJbOS5tGdlDDgBb6uvB-15" style="edgeStyle=orthogonalEdgeStyle;rounded=0;orthogonalLoop=1;jettySize=auto;html=1;exitX=1;exitY=0.5;exitDx=0;exitDy=0;entryX=0.5;entryY=1;entryDx=0;entryDy=0;" edge="1" parent="WIyWlLk6GJQsqaUBKTNV-1" source="CYJbOS5tGdlDDgBb6uvB-11" target="CYJbOS5tGdlDDgBb6uvB-3">
          <mxGeometry relative="1" as="geometry" />
        </mxCell>
        <mxCell id="CYJbOS5tGdlDDgBb6uvB-28" value="No" style="edgeLabel;html=1;align=center;verticalAlign=middle;resizable=0;points=[];" connectable="0" vertex="1" parent="CYJbOS5tGdlDDgBb6uvB-15">
          <mxGeometry x="-0.5494" y="1" relative="1" as="geometry">
            <mxPoint as="offset" />
          </mxGeometry>
        </mxCell>
        <mxCell id="CYJbOS5tGdlDDgBb6uvB-11" value="happy?" style="rhombus;whiteSpace=wrap;html=1;rounded=1;" vertex="1" parent="WIyWlLk6GJQsqaUBKTNV-1">
          <mxGeometry x="534" y="160" width="80" height="80" as="geometry" />
        </mxCell>
        <mxCell id="CYJbOS5tGdlDDgBb6uvB-20" value="" style="edgeStyle=orthogonalEdgeStyle;rounded=0;orthogonalLoop=1;jettySize=auto;html=1;" edge="1" parent="WIyWlLk6GJQsqaUBKTNV-1" source="CYJbOS5tGdlDDgBb6uvB-13" target="CYJbOS5tGdlDDgBb6uvB-19">
          <mxGeometry relative="1" as="geometry" />
        </mxCell>
        <mxCell id="CYJbOS5tGdlDDgBb6uvB-13" value="set the new menu and recipes" style="whiteSpace=wrap;html=1;rounded=1;" vertex="1" parent="WIyWlLk6GJQsqaUBKTNV-1">
          <mxGeometry x="460" y="270" width="120" height="60" as="geometry" />
        </mxCell>
        <mxCell id="CYJbOS5tGdlDDgBb6uvB-17" value="END" style="ellipse;whiteSpace=wrap;html=1;" vertex="1" parent="WIyWlLk6GJQsqaUBKTNV-1">
          <mxGeometry x="495" y="680" width="50" height="50" as="geometry" />
        </mxCell>
        <mxCell id="CYJbOS5tGdlDDgBb6uvB-22" value="" style="edgeStyle=orthogonalEdgeStyle;rounded=0;orthogonalLoop=1;jettySize=auto;html=1;" edge="1" parent="WIyWlLk6GJQsqaUBKTNV-1" source="CYJbOS5tGdlDDgBb6uvB-19" target="CYJbOS5tGdlDDgBb6uvB-21">
          <mxGeometry relative="1" as="geometry" />
        </mxCell>
        <mxCell id="CYJbOS5tGdlDDgBb6uvB-19" value="Asks the customers for feedback online" style="whiteSpace=wrap;html=1;rounded=1;" vertex="1" parent="WIyWlLk6GJQsqaUBKTNV-1">
          <mxGeometry x="460" y="360" width="120" height="60" as="geometry" />
        </mxCell>
        <mxCell id="CYJbOS5tGdlDDgBb6uvB-25" value="" style="edgeStyle=orthogonalEdgeStyle;rounded=0;orthogonalLoop=1;jettySize=auto;html=1;" edge="1" parent="WIyWlLk6GJQsqaUBKTNV-1" source="CYJbOS5tGdlDDgBb6uvB-21" target="CYJbOS5tGdlDDgBb6uvB-24">
          <mxGeometry relative="1" as="geometry" />
        </mxCell>
        <mxCell id="CYJbOS5tGdlDDgBb6uvB-29" value="Yes" style="edgeLabel;html=1;align=center;verticalAlign=middle;resizable=0;points=[];" connectable="0" vertex="1" parent="CYJbOS5tGdlDDgBb6uvB-25">
          <mxGeometry x="-0.3" y="-1" relative="1" as="geometry">
            <mxPoint as="offset" />
          </mxGeometry>
        </mxCell>
        <mxCell id="CYJbOS5tGdlDDgBb6uvB-30" style="edgeStyle=orthogonalEdgeStyle;rounded=0;orthogonalLoop=1;jettySize=auto;html=1;exitX=0;exitY=0.5;exitDx=0;exitDy=0;entryX=0.5;entryY=1;entryDx=0;entryDy=0;" edge="1" parent="WIyWlLk6GJQsqaUBKTNV-1" source="CYJbOS5tGdlDDgBb6uvB-21" target="CYJbOS5tGdlDDgBb6uvB-3">
          <mxGeometry relative="1" as="geometry" />
        </mxCell>
        <mxCell id="dZS05zoEMpCcjYwUeMb2-1" value="No" style="edgeLabel;html=1;align=center;verticalAlign=middle;resizable=0;points=[];" connectable="0" vertex="1" parent="CYJbOS5tGdlDDgBb6uvB-30">
          <mxGeometry x="-0.2312" y="-2" relative="1" as="geometry">
            <mxPoint as="offset" />
          </mxGeometry>
        </mxCell>
        <mxCell id="CYJbOS5tGdlDDgBb6uvB-21" value="happy?" style="rhombus;whiteSpace=wrap;html=1;rounded=1;" vertex="1" parent="WIyWlLk6GJQsqaUBKTNV-1">
          <mxGeometry x="480" y="460" width="80" height="80" as="geometry" />
        </mxCell>
        <mxCell id="CYJbOS5tGdlDDgBb6uvB-26" style="edgeStyle=orthogonalEdgeStyle;rounded=0;orthogonalLoop=1;jettySize=auto;html=1;exitX=0.5;exitY=1;exitDx=0;exitDy=0;entryX=0.5;entryY=0;entryDx=0;entryDy=0;" edge="1" parent="WIyWlLk6GJQsqaUBKTNV-1" source="CYJbOS5tGdlDDgBb6uvB-24" target="CYJbOS5tGdlDDgBb6uvB-17">
          <mxGeometry relative="1" as="geometry" />
        </mxCell>
        <mxCell id="CYJbOS5tGdlDDgBb6uvB-24" value="Menu and recipes stays like this for a while" style="whiteSpace=wrap;html=1;rounded=1;" vertex="1" parent="WIyWlLk6GJQsqaUBKTNV-1">
          <mxGeometry x="460" y="580" width="120" height="60" as="geometry" />
        </mxCell>
      </root>
    </mxGraphModel>
  </diagram>
</mxfile>
